<?xml version="1.0" encoding="UTF-8"?>
<svg version="1.1" xmlns="http://www.w3.org/2000/svg" width="250" height="72">
<path d="M0 0 C82.5 0 165 0 250 0 C250 23.76 250 47.52 250 72 C167.5 72 85 72 0 72 C0 48.24 0 24.48 0 0 Z " fill="#BC2F37" transform="translate(0,0)"/>
<path d="M0 0 C27.06 0 54.12 0 82 0 C82 0.66 82 1.32 82 2 C80.96359375 2.55816406 79.9271875 3.11632812 78.859375 3.69140625 C70.36447726 8.55996448 63.62447855 16.03442565 57.5 23.5625 C50.86099754 31.71557625 43.00850104 38.51602878 34 44 C30.625 44.25 30.625 44.25 28 44 C30.55306617 39.44783484 33.68811105 35.95597055 37.2578125 32.18359375 C38.97944936 30.02575742 39.59687329 28.6936194 40 26 C33.77585542 27.38810249 33.77585542 27.38810249 28 30 C27.505 28.515 27.505 28.515 27 27 C23.17902761 27.53069061 20.93828597 28.49701566 18 31 C17.34 30.67 16.68 30.34 16 30 C16.66 28.35 17.32 26.7 18 25 C13.78652944 27.33385544 10.24107598 30.22621439 6.625 33.375 C-6.41031692 44.51782807 -6.41031692 44.51782807 -13 45 C-12.31133314 39.78580806 -8.34609244 36.47461281 -5.03125 32.65625 C-3.19972716 30.26118167 -2.38716497 28.93139188 -2 26 C-6.29728861 28.19436014 -9.70806229 30.52583708 -13.25 33.8125 C-25.48698405 45 -25.48698405 45 -33 45 C-31.95106274 38.34507581 -28.81178681 33.25747589 -23.54296875 29.02734375 C-21.68576886 27.73341478 -19.82221157 26.44857348 -17.953125 25.171875 C-11.00303865 20.06043583 -4.19046281 13.56422289 0 6 C0 4.02 0 2.04 0 0 Z " fill="#BB2C34" transform="translate(93,0)"/>
<path d="M0 0 C0.36642199 3.28597786 0.16503583 4.73689941 -1.6171875 7.578125 C-8.34828949 15.54365054 -15.48104535 22.43273837 -23.875 28.625 C-29.00451517 32.53104424 -31.56475366 36.66559549 -33 43 C-24.55559261 39.26290056 -17.78825825 34.33048977 -10.95703125 28.15234375 C-10.05017578 27.33443359 -10.05017578 27.33443359 -9.125 26.5 C-8.35542969 25.77296875 -8.35542969 25.77296875 -7.5703125 25.03125 C-6 24 -6 24 -2 24 C-2.87138331 28.36993993 -5.26264521 31.21851404 -8 34.625 C-11.29809838 38.61545796 -11.29809838 38.61545796 -14 43 C-8.03750301 41.04304435 -3.74679257 38.67900991 1.0625 34.6875 C1.66884277 34.19983154 2.27518555 33.71216309 2.89990234 33.2097168 C6.05370063 30.65961167 9.11423153 28.03064518 12.125 25.3125 C15 23 15 23 19 23 C18.34 24.65 17.68 26.3 17 28 C19.49361571 26.79618552 21.68143083 25.54571278 24 24 C26.6875 23.875 26.6875 23.875 29 24 C29.8359375 26.14453125 29.8359375 26.14453125 30 29 C28.25548964 31.16714947 26.67000941 32.85447328 24.625 34.6875 C20.84280869 37.97047167 20.84280869 37.97047167 18 42 C23.44915409 40.89169747 26.84015388 39.89985574 31 36 C31.66 36.33 32.32 36.66 33 37 C31.87720538 37.98169476 30.75168527 38.96027298 29.625 39.9375 C28.99851562 40.48277344 28.37203125 41.02804688 27.7265625 41.58984375 C23.9191483 44.69951915 20.77055226 44.1514461 16 44 C15 43 15 43 14.62890625 40.76171875 C15.15791576 36.82477427 17.0631731 35.47719857 19.9375 32.8125 C23.42095412 29.74770346 23.42095412 29.74770346 26 26 C18.20342637 30.80223738 11.46924013 36.53075987 5 43 C4.01 43 3.02 43 2 43 C2.15404113 37.91664275 5.02068432 35.64245282 8.50390625 32.35546875 C8.99761719 31.90816406 9.49132812 31.46085937 10 31 C9.47664063 31.39960937 8.95328125 31.79921875 8.4140625 32.2109375 C5.44415369 34.41193788 2.41441228 36.52183525 -0.625 38.625 C-1.21023437 39.03234375 -1.79546875 39.4396875 -2.3984375 39.859375 C-7.45238398 43.36004435 -9.80124136 44.11479183 -16 44 C-16.64165788 38.73840541 -15.20577001 36.31407151 -12.09375 32.3203125 C-11.7328125 31.88460937 -11.371875 31.44890625 -11 31 C-11.556875 31.51949219 -12.11375 32.03898437 -12.6875 32.57421875 C-24.86351577 43.70128722 -24.86351577 43.70128722 -31.9375 44.375 C-35 44 -35 44 -36 43 C-36.15817644 39.44103015 -35.9354491 36.42255584 -35 33 C-35.74765625 33.62648437 -36.4953125 34.25296875 -37.265625 34.8984375 C-38.25046875 35.71570312 -39.2353125 36.53296875 -40.25 37.375 C-41.22453125 38.18710937 -42.1990625 38.99921875 -43.203125 39.8359375 C-48.07585688 43.60617976 -50.78554125 44.23901764 -57 44 C-57.73828125 42.3515625 -57.73828125 42.3515625 -58 40 C-56.41796875 37.2734375 -56.41796875 37.2734375 -54.1875 34.375 C-53.45917969 33.41335937 -52.73085937 32.45171875 -51.98046875 31.4609375 C-50 29 -50 29 -48 27 C-55.32582043 30.33875887 -60.86118413 36.7486933 -66.3359375 42.49609375 C-68 44 -68 44 -70 44 C-69.53465866 39.28736131 -67.67990706 37.16653923 -64.4375 33.8125 C-61.13530446 30.88381299 -61.13530446 30.88381299 -60 27 C-66.14928357 31.62456367 -71.46004839 36.32014331 -76.30859375 42.3125 C-78 44 -78 44 -81 44 C-80.50496987 39.55258649 -79.02739206 37.54663524 -75.9375 34.375 C-72.62339827 31.26827733 -72.62339827 31.26827733 -72 27 C-70.1875 24.8125 -70.1875 24.8125 -68 23 C-67.01 23 -66.02 23 -65 23 C-65.33 24.65 -65.66 26.3 -66 28 C-65.113125 27.319375 -64.22625 26.63875 -63.3125 25.9375 C-60 24 -60 24 -57.1875 24.125 C-55 25 -55 25 -54 27 C-52.948125 26.2575 -52.948125 26.2575 -51.875 25.5 C-48.62880281 23.8063319 -46.60659844 23.74837685 -43 24 C-43.52252487 28.0601595 -44.58037245 30.09689313 -47.375 33.0625 C-49.75190384 35.61640732 -51.94891349 38.1750373 -54 41 C-49.15691152 41.56561617 -47.00683376 39.94185924 -43.25 37 C-42.72559326 36.58991699 -42.20118652 36.17983398 -41.66088867 35.75732422 C-40.09466491 34.52066849 -38.54705018 33.26055941 -37 32 C-36.18660156 31.34257813 -35.37320313 30.68515625 -34.53515625 30.0078125 C-29.41943462 25.6742838 -25.29318359 20.84437161 -21.12109375 15.609375 C-8.43263473 -0 -8.43263473 -0 0 0 Z " fill="#F9EEEF" transform="translate(176,2)"/>
<path d="M0 0 C0.53625 0.2475 1.0725 0.495 1.625 0.75 C1.19503512 5.55858683 -1.08642641 8.1535546 -4.3125 11.5 C-4.80322998 12.02078125 -5.29395996 12.5415625 -5.79956055 13.078125 C-17.10521637 24.92646682 -17.10521637 24.92646682 -23.625 28.5625 C-28.18101711 32.18660452 -30.05104189 37.50873276 -32.375 42.75 C-25.0624815 40.58332785 -20.11250095 36.69977029 -14.375 31.75 C-13.385 32.245 -13.385 32.245 -12.375 32.75 C-23.92566767 43.43061738 -23.92566767 43.43061738 -30.75 44.0625 C-33.375 43.75 -33.375 43.75 -34.375 42.75 C-34.51068319 39.08655389 -34.53961426 36.24384279 -33.375 32.75 C-34.20644531 33.37648437 -35.03789063 34.00296875 -35.89453125 34.6484375 C-36.99215542 35.47400098 -38.08981345 36.29951946 -39.1875 37.125 C-39.73470703 37.5375 -40.28191406 37.95 -40.84570312 38.375 C-48.37004055 44.02965358 -48.37004055 44.02965358 -53.9375 44 C-54.90816406 44.00515625 -55.87882812 44.0103125 -56.87890625 44.015625 C-59.375 43.75 -59.375 43.75 -61.375 41.75 C-61.375 40.43 -61.375 39.11 -61.375 37.75 C-61.98988281 38.19472656 -62.60476562 38.63945313 -63.23828125 39.09765625 C-64.04652344 39.66355469 -64.85476562 40.22945312 -65.6875 40.8125 C-66.48800781 41.38097656 -67.28851563 41.94945312 -68.11328125 42.53515625 C-68.85964844 42.93605469 -69.60601562 43.33695313 -70.375 43.75 C-71.365 43.42 -72.355 43.09 -73.375 42.75 C-72.73175781 42.37230469 -72.08851562 41.99460938 -71.42578125 41.60546875 C-64.45302933 37.35815767 -58.36533516 32.55659054 -52.22265625 27.203125 C-51.28292969 26.39359375 -50.34320313 25.5840625 -49.375 24.75 C-48.65183594 24.12609375 -47.92867187 23.5021875 -47.18359375 22.859375 C-46.58675781 22.49328125 -45.98992188 22.1271875 -45.375 21.75 C-44.385 22.08 -43.395 22.41 -42.375 22.75 C-42.89770265 27.65309806 -44.3762631 30.93388507 -46.9375 35.125 C-47.57816406 36.18460938 -48.21882813 37.24421875 -48.87890625 38.3359375 C-49.37261719 39.13257813 -49.86632812 39.92921875 -50.375 40.75 C-46.21826021 40.18637427 -43.38591293 37.76591032 -40.1875 35.25 C-39.61306152 34.80221191 -39.03862305 34.35442383 -38.44677734 33.89306641 C-31.27438318 28.20765645 -25.15483164 21.7150019 -19.19140625 14.796875 C-5.54283024 -0.58345581 -5.54283024 -0.58345581 0 0 Z " fill="#F8ECEC" transform="translate(92.375,2.25)"/>
<path d="M0 0 C-0.66 1.65 -1.32 3.3 -2 5 C0.49361571 3.79618552 2.68143083 2.54571278 5 1 C7.6875 0.875 7.6875 0.875 10 1 C10.8359375 3.14453125 10.8359375 3.14453125 11 6 C9.25548964 8.16714947 7.67000941 9.85447328 5.625 11.6875 C1.84280869 14.97047167 1.84280869 14.97047167 -1 19 C4.44915409 17.89169747 7.84015388 16.89985574 12 13 C12.99 13.495 12.99 13.495 14 14 C12.87720538 14.98169476 11.75168527 15.96027298 10.625 16.9375 C9.99851562 17.48277344 9.37203125 18.02804688 8.7265625 18.58984375 C4.9191483 21.69951915 1.77055226 21.1514461 -3 21 C-4 20 -4 20 -4.37109375 17.76171875 C-3.84208424 13.82477427 -1.9368269 12.47719857 0.9375 9.8125 C4.42095412 6.74770346 4.42095412 6.74770346 7 3 C-0.79657363 7.80223738 -7.53075987 13.53075987 -14 20 C-14.99 20 -15.98 20 -17 20 C-16.84595887 14.91664275 -13.97931568 12.64245282 -10.49609375 9.35546875 C-10.00238281 8.90816406 -9.50867188 8.46085937 -9 8 C-9.52335937 8.39960937 -10.04671875 8.79921875 -10.5859375 9.2109375 C-13.55584631 11.41193788 -16.58558772 13.52183525 -19.625 15.625 C-20.21023437 16.03234375 -20.79546875 16.4396875 -21.3984375 16.859375 C-26.45238398 20.36004435 -28.80124136 21.11479183 -35 21 C-35.64165788 15.73840541 -34.20577001 13.31407151 -31.09375 9.3203125 C-30.7328125 8.88460937 -30.371875 8.44890625 -30 8 C-30.556875 8.51949219 -31.11375 9.03898437 -31.6875 9.57421875 C-43.86351577 20.70128722 -43.86351577 20.70128722 -50.9375 21.375 C-54 21 -54 21 -55 20 C-55.04080783 18.00041636 -55.04254356 15.99954746 -55 14 C-52 17.75 -52 17.75 -52 20 C-43.55559261 16.26290056 -36.78825825 11.33048977 -29.95703125 5.15234375 C-29.35246094 4.60707031 -28.74789062 4.06179687 -28.125 3.5 C-27.61195313 3.0153125 -27.09890625 2.530625 -26.5703125 2.03125 C-25 1 -25 1 -21 1 C-21.87138331 5.36993993 -24.26264521 8.21851404 -27 11.625 C-30.29809838 15.61545796 -30.29809838 15.61545796 -33 20 C-27.03750301 18.04304435 -22.74679257 15.67900991 -17.9375 11.6875 C-17.33115723 11.19983154 -16.72481445 10.71216309 -16.10009766 10.2097168 C-12.94629937 7.65961167 -9.88576847 5.03064518 -6.875 2.3125 C-4 0 -4 0 0 0 Z " fill="#F8EBEB" transform="translate(195,25)"/>
<path d="M0 0 C-0.33 1.65 -0.66 3.3 -1 5 C-0.113125 4.319375 0.77375 3.63875 1.6875 2.9375 C5 1 5 1 7.8125 1.125 C10 2 10 2 11 4 C11.70125 3.505 12.4025 3.01 13.125 2.5 C16.37119719 0.8063319 18.39340156 0.74837685 22 1 C21.47747513 5.0601595 20.41962755 7.09689313 17.625 10.0625 C15.24809616 12.61640732 13.05108651 15.1750373 11 18 C15.22146546 18.35178879 16.71423428 17.51908705 20 15 C20.99 15.33 21.98 15.66 23 16 C17.83783423 19.75430238 14.43985624 21.67081836 8 21 C7.26171875 19.3515625 7.26171875 19.3515625 7 17 C8.58203125 14.2734375 8.58203125 14.2734375 10.8125 11.375 C11.90498047 9.93253906 11.90498047 9.93253906 13.01953125 8.4609375 C15 6 15 6 17 4 C9.67417957 7.33875887 4.13881587 13.7486933 -1.3359375 19.49609375 C-3 21 -3 21 -5 21 C-4.53465866 16.28736131 -2.67990706 14.16653923 0.5625 10.8125 C3.86469554 7.88381299 3.86469554 7.88381299 5 4 C-1.14928357 8.62456367 -6.46004839 13.32014331 -11.30859375 19.3125 C-13 21 -13 21 -16 21 C-15.50496987 16.55258649 -14.02739206 14.54663524 -10.9375 11.375 C-7.62339827 8.26827733 -7.62339827 8.26827733 -7 4 C-3.68571429 0 -3.68571429 0 0 0 Z " fill="#F6E3E4" transform="translate(111,25)"/>
<path d="M0 0 C0 2.125 0 2.125 -1 5 C-5.08198892 8.89688679 -9.87141734 11.6921378 -15 14 C-15 15.32 -15 16.64 -15 18 C-14.01 18.66 -13.02 19.32 -12 20 C-14.33294775 20.04241723 -16.66702567 20.04092937 -19 20 C-20 19 -20 19 -20.0625 16.125 C-20.041875 15.09375 -20.02125 14.0625 -20 13 C-20 12.01 -20 11.02 -20 10 C-17.734375 7.80859375 -17.734375 7.80859375 -14.75 5.4375 C-13.77546875 4.65246094 -12.8009375 3.86742187 -11.796875 3.05859375 C-7.39323158 -0.18263541 -5.39146854 -1.49763015 0 0 Z " fill="#F8E9EA" transform="translate(230,26)"/>
<path d="M0 0 C2.17797852 0.37109375 2.17797852 0.37109375 4 1 C2.55041382 3.5054576 1.09101202 6.00418199 -0.375 8.5 C-0.7875 9.21542969 -1.2 9.93085937 -1.625 10.66796875 C-2.69451438 12.47924311 -3.8419038 14.24404186 -5 16 C-5.66 16 -6.32 16 -7 16 C-7 16.66 -7 17.32 -7 18 C-7.99 18.33 -8.98 18.66 -10 19 C-10.66 18.34 -11.32 17.68 -12 17 C-12 15.68 -12 14.36 -12 13 C-12.61488281 13.44472656 -13.22976562 13.88945313 -13.86328125 14.34765625 C-15.07564453 15.19650391 -15.07564453 15.19650391 -16.3125 16.0625 C-17.11300781 16.63097656 -17.91351563 17.19945313 -18.73828125 17.78515625 C-19.48464844 18.18605469 -20.23101563 18.58695313 -21 19 C-21.99 18.67 -22.98 18.34 -24 18 C-23.35675781 17.62230469 -22.71351562 17.24460937 -22.05078125 16.85546875 C-15.58371061 12.91618321 -9.95828304 8.62407833 -4.41723633 3.46948242 C-2.84765625 2.0625 -2.84765625 2.0625 0 0 Z " fill="#F4DEDF" transform="translate(43,27)"/>
<path d="M0 0 C-0.48094278 4.72354517 -2.42549873 7.09321532 -5.5 10.625 C-8.89126597 14.44393489 -8.89126597 14.44393489 -11 19 C-2.54407691 15.89949487 3.35479088 10.89186054 10 5 C10.66 5.33 11.32 5.66 12 6 C-3.15846871 20.25765807 -3.15846871 20.25765807 -10 20.3125 C-10.99 20.209375 -11.98 20.10625 -13 20 C-13.75 17.875 -13.75 17.875 -14 15 C-12.73339467 12.95708818 -11.40113616 10.95309888 -10 9 C-10 8.01 -10 7.02 -10 6 C-8.57421875 4.39453125 -8.57421875 4.39453125 -6.6875 2.8125 C-6.07261719 2.28269531 -5.45773438 1.75289062 -4.82421875 1.20703125 C-3 0 -3 0 0 0 Z " fill="#F8EBEC" transform="translate(91,26)"/>
<path d="M0 0 C-0.32441604 1.66842534 -0.65939189 3.33480481 -1 5 C-1.09667969 5.63421875 -1.19335938 6.2684375 -1.29296875 6.921875 C-2.23533963 9.69171648 -3.75068991 11.00797295 -5.875 13 C-8.0107318 15.01751786 -9.88647252 16.83733377 -11.5703125 19.25 C-12.04210937 19.8275 -12.51390625 20.405 -13 21 C-13.99 21 -14.98 21 -16 21 C-15.50496987 16.55258649 -14.02739206 14.54663524 -10.9375 11.375 C-7.62339827 8.26827733 -7.62339827 8.26827733 -7 4 C-3.68571429 0 -3.68571429 0 0 0 Z " fill="#F8EDED" transform="translate(111,25)"/>
<path d="M0 0 C1.32 0 2.64 0 4 0 C2.78461236 3.45918019 1.55967074 5.44032926 -1 8 C-1 8.99 -1 9.98 -1 11 C-2.86328125 13.26171875 -2.86328125 13.26171875 -5.3125 15.6875 C-6.51326172 16.89986328 -6.51326172 16.89986328 -7.73828125 18.13671875 C-10 20 -10 20 -13 20 C-12.5326889 15.415517 -10.99086311 13.61791943 -7.625 10.5625 C-4.08985132 7.20157963 -1.74592962 4.53941701 0 0 Z " fill="#FAF0F1" transform="translate(191,25)"/>
<path d="M0 0 C0.99 0.33 1.98 0.66 3 1 C2.48233873 5.87768159 1.03291078 9.05057252 -1.5625 13.1875 C-4.30454327 17.29078572 -4.30454327 17.29078572 -5 22 C-7.64 22 -10.28 22 -13 22 C-12.34 21.67 -11.68 21.34 -11 21 C-11 20.34 -11 19.68 -11 19 C-10.34 19 -9.68 19 -9 19 C-8.73445313 18.28070313 -8.46890625 17.56140625 -8.1953125 16.8203125 C-6.59770546 13.05079523 -4.43285507 9.75315464 -2.2421875 6.3046875 C-0.76277216 3.99621561 -0.76277216 3.99621561 -1 1 C-0.67 0.67 -0.34 0.34 0 0 Z " fill="#FBF4F4" transform="translate(47,24)"/>
<path d="M0 0 C0.33 0.99 0.66 1.98 1 3 C-3.25905086 11.1847847 -11.69503899 18.58019022 -19 24 C-19.66 23.67 -20.32 23.34 -21 23 C-7.04255319 6.65957447 -7.04255319 6.65957447 0 0 Z " fill="#B8232B" transform="translate(91,3)"/>
<path d="M0 0 C0.66 0.33 1.32 0.66 2 1 C-0.97 4.96 -0.97 4.96 -4 9 C-2.68 8.67 -1.36 8.34 0 8 C-1.63412443 9.70840281 -2.86906094 10.93453047 -5 12 C-5 13.32 -5 14.64 -5 16 C-4.01 16.66 -3.02 17.32 -2 18 C-4.33294775 18.04241723 -6.66702567 18.04092937 -9 18 C-10 17 -10 17 -10.0625 14.125 C-10.041875 13.09375 -10.02125 12.0625 -10 11 C-10 10.01 -10 9.02 -10 8 C-7.8125 5.95703125 -7.8125 5.95703125 -5 3.8125 C-4.071875 3.09707031 -3.14375 2.38164062 -2.1875 1.64453125 C-1.1046875 0.83048828 -1.1046875 0.83048828 0 0 Z " fill="#FBF4F5" transform="translate(220,28)"/>
<path d="M0 0 C-0.1203284 3.97083717 -1.53808709 5.81161779 -4.25 8.5 C-5.49519219 9.67179671 -6.74492859 10.83879077 -8 12 C-8.825 12.845625 -9.65 13.69125 -10.5 14.5625 C-13.54274135 17.52917282 -16.74506545 20.27035748 -20 23 C-20 18.82359937 -17.68376574 17.16074318 -14.9375 14.3125 C-13.92619404 13.24172462 -12.91577853 12.17010756 -11.90625 11.09765625 C-11.40996094 10.57316895 -10.91367188 10.04868164 -10.40234375 9.50830078 C-7.94758256 6.86806495 -5.64387853 4.09972674 -3.33984375 1.328125 C-2 0 -2 0 0 0 Z " fill="#B62229" transform="translate(174,4)"/>
<path d="M0 0 C2.00720923 0.28674418 4.0085944 0.61866701 6 1 C6 4.3 6 7.6 6 11 C4.0085944 11.38133299 2.00720923 11.71325582 0 12 C-1 11 -1 11 -1.1328125 8.75 C-1.13023438 7.8425 -1.12765625 6.935 -1.125 6 C-1.12757812 5.0925 -1.13015625 4.185 -1.1328125 3.25 C-1 1 -1 1 0 0 Z " fill="#EBC4C6" transform="translate(111,56)"/>
<path d="M0 0 C2.625 0.375 2.625 0.375 5 1 C5 4.3 5 7.6 5 11 C2.625 11.625 2.625 11.625 0 12 C-2 10 -2 10 -2.265625 8.125 C-2.26046875 7.42375 -2.2553125 6.7225 -2.25 6 C-2.25515625 5.29875 -2.2603125 4.5975 -2.265625 3.875 C-2 2 -2 2 0 0 Z " fill="#E9BBBE" transform="translate(202,56)"/>
<path d="M0 0 C2.625 0.375 2.625 0.375 5 1 C5 4.3 5 7.6 5 11 C2.625 11.625 2.625 11.625 0 12 C-2 10 -2 10 -2.265625 8.125 C-2.26046875 7.42375 -2.2553125 6.7225 -2.25 6 C-2.25515625 5.29875 -2.2603125 4.5975 -2.265625 3.875 C-2 2 -2 2 0 0 Z " fill="#EFD0D2" transform="translate(210,56)"/>
<path d="M0 0 C2.625 0.375 2.625 0.375 5 1 C5 4.3 5 7.6 5 11 C2.625 11.625 2.625 11.625 0 12 C-2 10 -2 10 -2.265625 8.125 C-2.26046875 7.42375 -2.2553125 6.7225 -2.25 6 C-2.25515625 5.29875 -2.2603125 4.5975 -2.265625 3.875 C-2 2 -2 2 0 0 Z " fill="#EFCED0" transform="translate(128,56)"/>
<path d="M0 0 C1.32 0.66 2.64 1.32 4 2 C1.71643754 4.34138543 -0.57813374 6.67166982 -2.875 9 C-3.85146484 10.00160156 -3.85146484 10.00160156 -4.84765625 11.0234375 C-5.47285156 11.65507813 -6.09804687 12.28671875 -6.7421875 12.9375 C-7.3182373 13.52402344 -7.89428711 14.11054687 -8.48779297 14.71484375 C-10 16 -10 16 -12 16 C-11.4905478 11.63878044 -10.08696348 9.50773166 -7.125 6.3125 C-6.07699219 5.16201172 -6.07699219 5.16201172 -5.0078125 3.98828125 C-3 2 -3 2 0 0 Z " fill="#FAF1F1" transform="translate(118,30)"/>
<path d="M0 0 C0.33 0.99 0.66 1.98 1 3 C-0.38440658 4.63474589 -1.78303245 6.25745662 -3.1875 7.875 C-3.96480469 8.77992187 -4.74210937 9.68484375 -5.54296875 10.6171875 C-8.8722501 13.84590232 -11.37714705 15 -16 15 C-11.30217584 9.06590633 -6.01350104 4.57548992 0 0 Z " fill="#B9262E" transform="translate(116,28)"/>
<path d="M0 0 C1.65 0 3.3 0 5 0 C5.87803368 3.73164314 6.17423601 7.16680771 6 11 C5.67 11.33 5.34 11.66 5 12 C3.35 12 1.7 12 0 12 C0 8.04 0 4.08 0 0 Z " fill="#E1A4A6" transform="translate(164,56)"/>
<path d="M0 0 C1.65 0 3.3 0 5 0 C5.87803368 3.73164314 6.17423601 7.16680771 6 11 C5.67 11.33 5.34 11.66 5 12 C3.35 12 1.7 12 0 12 C0 8.04 0 4.08 0 0 Z " fill="#E1A4A7" transform="translate(135,56)"/>
<path d="M0 0 C0.66 0 1.32 0 2 0 C2.33 1.32 2.66 2.64 3 4 C3.99 3.01 4.98 2.02 6 1 C5.67 3.97 5.34 6.94 5 10 C4.01 10.33 3.02 10.66 2 11 C1.34 10.34 0.68 9.68 0 9 C-0.33 9.66 -0.66 10.32 -1 11 C-1.66 11 -2.32 11 -3 11 C-4.31626692 7.38026598 -5 4.90432869 -5 1 C-4.34 1 -3.68 1 -3 1 C-3 2.65 -3 4.3 -3 6 C-2.34 6 -1.68 6 -1 6 C-0.67 4.02 -0.34 2.04 0 0 Z " fill="#E8B9BC" transform="translate(89,56)"/>
<path d="M0 0 C0.66 0 1.32 0 2 0 C2 3.63 2 7.26 2 11 C1.34 11 0.68 11 0 11 C-0.33 10.01 -0.66 9.02 -1 8 C-1.66 9.32 -2.32 10.64 -3 12 C-3.99 10.68 -4.98 9.36 -6 8 C-6.66 8.99 -7.32 9.98 -8 11 C-8 7.7 -8 4.4 -8 1 C-5 2 -5 2 -3.8125 4.0625 C-3.544375 4.701875 -3.27625 5.34125 -3 6 C-2.01 4.02 -1.02 2.04 0 0 Z " fill="#EDC9CB" transform="translate(225,56)"/>
<path d="M0 0 C0.66 0 1.32 0 2 0 C2.73828125 1.67578125 2.73828125 1.67578125 3 4 C-2.63712636 13.2019929 -11.62938932 21.68334146 -21 27 C-21.33 26.01 -21.66 25.02 -22 24 C-20.7315625 23.443125 -20.7315625 23.443125 -19.4375 22.875 C-11.4000919 18.49095922 -5.04986448 11.57479672 0 4 C0 2.68 0 1.36 0 0 Z " fill="#EECBCD" transform="translate(173,3)"/>
<path d="M0 0 C0.66 0.33 1.32 0.66 2 1 C1.09755571 2.79887229 0.17748214 4.58890815 -0.75 6.375 C-1.26046875 7.37273438 -1.7709375 8.37046875 -2.296875 9.3984375 C-4.04307055 12.06579125 -5.05303231 12.93652905 -8 14 C-8.66 12.35 -9.32 10.7 -10 9 C-6.7 6.03 -3.4 3.06 0 0 Z " fill="#B62028" transform="translate(44,28)"/>
<path d="M0 0 C0.99 0 1.98 0 3 0 C1.51213893 2.97572214 -0.95613736 4.33812389 -3.6171875 6.26953125 C-5.26791405 7.46833758 -6.89704465 8.69723564 -8.5078125 9.94921875 C-15.80183069 15.44761472 -15.80183069 15.44761472 -20.0625 15.5 C-23 15 -23 15 -24 14 C-24.04080783 12.00041636 -24.04254356 9.99954746 -24 8 C-21 11.75 -21 11.75 -21 14 C-13.13761209 10.52047514 -6.11611779 6.11611779 0 0 Z " fill="#F1D6D7" transform="translate(164,31)"/>
<path d="M0 0 C0.66 0 1.32 0 2 0 C2 1.32 2 2.64 2 4 C2.99 4 3.98 4 5 4 C5 2.68 5 1.36 5 0 C5.66 0 6.32 0 7 0 C7 3.63 7 7.26 7 11 C6.34 11 5.68 11 5 11 C5 9.35 5 7.7 5 6 C4.01 6 3.02 6 2 6 C2 7.65 2 9.3 2 11 C1.34 11 0.68 11 0 11 C0 7.37 0 3.74 0 0 Z " fill="#E8BBBD" transform="translate(184,57)"/>
<path d="M0 0 C0.66 0.33 1.32 0.66 2 1 C-13.15846871 15.25765807 -13.15846871 15.25765807 -20 15.3125 C-20.99 15.209375 -21.98 15.10625 -23 15 C-23.33 13.35 -23.66 11.7 -24 10 C-23.67 10.66 -23.34 11.32 -23 12 C-22.34 12 -21.68 12 -21 12 C-21 12.66 -21 13.32 -21 14 C-12.54407691 10.89949487 -6.64520912 5.89186054 0 0 Z " fill="#F5E0E1" transform="translate(101,31)"/>
<path d="M0 0 C1.65 0 3.3 0 5 0 C6 1 6 1 6.09765625 3.28515625 C6.08605469 4.20167969 6.07445313 5.11820313 6.0625 6.0625 C6.05347656 6.98160156 6.04445313 7.90070312 6.03515625 8.84765625 C6.02355469 9.55792969 6.01195313 10.26820312 6 11 C5.34 10.01 4.68 9.02 4 8 C3.01 7.67 2.02 7.34 1 7 C0.67 8.32 0.34 9.64 0 11 C0 7.37 0 3.74 0 0 Z " fill="#E2A7AA" transform="translate(119,56)"/>
<path d="M0 0 C1.65 0 3.3 0 5 0 C6 1 6 1 6.09765625 3.28515625 C6.08605469 4.20167969 6.07445313 5.11820313 6.0625 6.0625 C6.05347656 6.98160156 6.04445313 7.90070312 6.03515625 8.84765625 C6.02355469 9.55792969 6.01195313 10.26820312 6 11 C5.34 10.01 4.68 9.02 4 8 C3.01 7.67 2.02 7.34 1 7 C0.67 8.32 0.34 9.64 0 11 C0 7.37 0 3.74 0 0 Z " fill="#E2A7AA" transform="translate(103,56)"/>
<path d="M0 0 C0.99 0.33 1.98 0.66 3 1 C1.90653119 2.34212062 0.7998425 3.67347975 -0.3125 5 C-0.92738281 5.7425 -1.54226562 6.485 -2.17578125 7.25 C-4 9 -4 9 -7 9 C-9.12708293 10.76248102 -9.12708293 10.76248102 -11.1875 13 C-11.90292969 13.7425 -12.61835937 14.485 -13.35546875 15.25 C-13.89816406 15.8275 -14.44085938 16.405 -15 17 C-15 14 -15 14 -12.734375 11.40625 C-11.74721061 10.42972889 -10.7520431 9.46124745 -9.75 8.5 C-9.25886719 8.01402344 -8.76773438 7.52804688 -8.26171875 7.02734375 C-2.78178647 1.66431669 -2.78178647 1.66431669 0 0 Z " fill="#B41921" transform="translate(126,28)"/>
<path d="M0 0 C1.2065625 0.0309375 1.2065625 0.0309375 2.4375 0.0625 C2.4375 0.7225 2.4375 1.3825 2.4375 2.0625 C1.1175 2.0625 -0.2025 2.0625 -1.5625 2.0625 C-1.5625 3.0525 -1.5625 4.0425 -1.5625 5.0625 C-0.5725 5.0625 0.4175 5.0625 1.4375 5.0625 C1.4375 5.7225 1.4375 6.3825 1.4375 7.0625 C0.4475 7.0625 -0.5425 7.0625 -1.5625 7.0625 C-1.5625 8.0525 -1.5625 9.0425 -1.5625 10.0625 C-0.2425 10.0625 1.0775 10.0625 2.4375 10.0625 C2.4375 10.7225 2.4375 11.3825 2.4375 12.0625 C0.77138095 12.105221 -0.89632885 12.10313832 -2.5625 12.0625 C-3.5625 11.0625 -3.5625 11.0625 -3.6953125 8.8125 C-3.69273437 7.905 -3.69015625 6.9975 -3.6875 6.0625 C-3.69007813 5.155 -3.69265625 4.2475 -3.6953125 3.3125 C-3.50465529 0.08254264 -3.25740423 0.07944888 0 0 Z " fill="#E7B5B8" transform="translate(145.5625,55.9375)"/>
<path d="M0 0 C-1.36018991 3.11963955 -2.83260134 5.00834822 -5.4375 7.1875 C-6.33275391 7.95126953 -6.33275391 7.95126953 -7.24609375 8.73046875 C-9 10 -9 10 -12 11 C-9.64863565 5.70943021 -6.29382373 0 0 0 Z " fill="#B7232A" transform="translate(227,27)"/>
<path d="M0 0 C0.66 0 1.32 0 2 0 C2 1.65 2 3.3 2 5 C5.27773504 4.24849977 5.27773504 4.24849977 7 1 C7 4.3 7 7.6 7 11 C6.34 11 5.68 11 5 11 C5 9.35 5 7.7 5 6 C4.01 6 3.02 6 2 6 C2 7.65 2 9.3 2 11 C1.34 11 0.68 11 0 11 C0 7.37 0 3.74 0 0 Z " fill="#EBC2C4" transform="translate(192,57)"/>
<path d="M0 0 C2.5 0.3125 2.5 0.3125 5 1 C5.33 1.66 5.66 2.32 6 3 C6.99 3.33 7.98 3.66 9 4 C8 5 8 5 4.4375 5.0625 C3.303125 5.041875 2.16875 5.02125 1 5 C0.67 4.34 0.34 3.68 0 3 C-1.98 4.32 -3.96 5.64 -6 7 C-6.66 6.34 -7.32 5.68 -8 5 C-6.20963542 3.99088542 -4.41927083 2.98177083 -2.62890625 1.97265625 C-1.02121854 1.1027487 -1.02121854 1.1027487 0 0 Z " fill="#EECBCD" transform="translate(116,26)"/>
<path d="M0 0 C2.125 0.375 2.125 0.375 4 1 C3.67 1.99 3.34 2.98 3 4 C3 3.34 3 2.68 3 2 C2.01 2 1.02 2 0 2 C0 4.64 0 7.28 0 10 C0.99 10 1.98 10 3 10 C3.33 9.34 3.66 8.68 4 8 C3.67 9.32 3.34 10.64 3 12 C1.35 11.67 -0.3 11.34 -2 11 C-2.05399736 9.54207116 -2.09279177 8.08357288 -2.125 6.625 C-2.15980469 5.40683594 -2.15980469 5.40683594 -2.1953125 4.1640625 C-2 2 -2 2 0 0 Z " fill="#EECDCF" transform="translate(41,56)"/>
<path d="M0 0 C0.99 0.33 1.98 0.66 3 1 C4.1875 3.5625 4.1875 3.5625 5 6 C5.33 4.02 5.66 2.04 6 0 C6.33 0 6.66 0 7 0 C7 3.3 7 6.6 7 10 C6.01 9.67 5.02 9.34 4 9 C2.8125 6.4375 2.8125 6.4375 2 4 C1.67 5.98 1.34 7.96 1 10 C0.67 10 0.34 10 0 10 C0 6.7 0 3.4 0 0 Z " fill="#F4DEE0" transform="translate(61,57)"/>
<path d="M0 0 C1.67542976 0.28604898 3.34385343 0.61781233 5 1 C4.67 2.32 4.34 3.64 4 5 C2.02 5.33 0.04 5.66 -2 6 C-1.125 1.125 -1.125 1.125 0 0 Z " fill="#F4DEDF" transform="translate(179,12)"/>
<path d="M0 0 C0.66 0.33 1.32 0.66 2 1 C-1.3 4.96 -4.6 8.92 -8 13 C-8.66 11.68 -9.32 10.36 -10 9 C-6.7 6.03 -3.4 3.06 0 0 Z " fill="#B62027" transform="translate(103,31)"/>
<path d="M0 0 C-0.47645208 4.28806873 -1.65902484 6.26647487 -5 9 C-5.66 9 -6.32 9 -7 9 C-7.33 8.01 -7.66 7.02 -8 6 C-7.0479279 4.99403703 -6.08812654 3.99538437 -5.125 3 C-4.59132812 2.443125 -4.05765625 1.88625 -3.5078125 1.3125 C-2 0 -2 0 0 0 Z " fill="#B92930" transform="translate(174,4)"/>
<path d="M0 0 C1.32 0 2.64 0 4 0 C4 2.64 4 5.28 4 8 C2.68 8 1.36 8 0 8 C0 5.36 0 2.72 0 0 Z " fill="#B8252D" transform="translate(210,58)"/>
<path d="M0 0 C1.32 0 2.64 0 4 0 C4 2.64 4 5.28 4 8 C2.68 8 1.36 8 0 8 C0 5.36 0 2.72 0 0 Z " fill="#B8232B" transform="translate(128,58)"/>
<path d="M0 0 C0.99 0 1.98 0 3 0 C3 0.66 3 1.32 3 2 C3.66 2 4.32 2 5 2 C5 3.32 5 4.64 5 6 C4.34 6 3.68 6 3 6 C3 6.66 3 7.32 3 8 C2.01 8 1.02 8 0 8 C0 5.36 0 2.72 0 0 Z " fill="#B51B23" transform="translate(41,58)"/>
<path d="M0 0 C0.66 0 1.32 0 2 0 C1.75 1.875 1.75 1.875 1 4 C-0.3191582 4.69429379 -1.65549834 5.35615413 -3 6 C-4.43758346 7.01260441 -5.8545128 8.05512648 -7.25 9.125 C-7.95640625 9.66382813 -8.6628125 10.20265625 -9.390625 10.7578125 C-9.92171875 11.16773438 -10.4528125 11.57765625 -11 12 C-11.33 11.34 -11.66 10.68 -12 10 C-11.30132812 9.44570313 -10.60265625 8.89140625 -9.8828125 8.3203125 C-8.97273437 7.59585938 -8.06265625 6.87140625 -7.125 6.125 C-6.22007812 5.40570313 -5.31515625 4.68640625 -4.3828125 3.9453125 C-1.99734824 2.06439526 -1.99734824 2.06439526 0 0 Z " fill="#F3DCDE" transform="translate(187,28)"/>
<path d="M0 0 C1.32 0 2.64 0 4 0 C3.67 1.65 3.34 3.3 3 5 C1.35 5.33 -0.3 5.66 -2 6 C-2 2 -2 2 0 0 Z " fill="#F7E7E8" transform="translate(97,12)"/>
<path d="M0 0 C1.32 0.33 2.64 0.66 4 1 C4 3.31 4 5.62 4 8 C2.68 8 1.36 8 0 8 C0 5.36 0 2.72 0 0 Z " fill="#B72129" transform="translate(112,58)"/>
<path d="M0 0 C0.66 0 1.32 0 2 0 C2 3.63 2 7.26 2 11 C1.34 11 0.68 11 0 11 C-1.7578125 5.04296875 -1.7578125 5.04296875 -2 3 C-1.34 2.01 -0.68 1.02 0 0 Z " fill="#E4AEB1" transform="translate(225,56)"/>
<path d="M0 0 C2.1875 0.3125 2.1875 0.3125 4 1 C3.58578031 5.83256305 1.53586014 7.82679218 -2 11 C-1.67 10.236875 -1.34 9.47375 -1 8.6875 C0.17436686 6.00930865 0.17436686 6.00930865 0 3 C-0.99 3 -1.98 3 -3 3 C-1.75 1.4375 -1.75 1.4375 0 0 Z " fill="#F4DEDF" transform="translate(90,2)"/>
<path d="M0 0 C1.32 0 2.64 0 4 0 C4 2.64 4 5.28 4 8 C2.68 8 1.36 8 0 8 C0 7.01 0 6.02 0 5 C0.99 5 1.98 5 3 5 C3 4.34 3 3.68 3 3 C2.01 3 1.02 3 0 3 C0 2.01 0 1.02 0 0 Z " fill="#B51B23" transform="translate(144,58)"/>
<path d="M0 0 C1.65 0 3.3 0 5 0 C5.33 0.66 5.66 1.32 6 2 C5.0625 4.125 5.0625 4.125 4 6 C3.01 6 2.02 6 1 6 C0.67 4.02 0.34 2.04 0 0 Z " fill="#CC6267" transform="translate(193,56)"/>
<path d="M0 0 C1.65 0 3.3 0 5 0 C5.33 1.65 5.66 3.3 6 5 C4.35 5 2.7 5 1 5 C0.67 3.35 0.34 1.7 0 0 Z " fill="#D47C80" transform="translate(164,56)"/>
<path d="M0 0 C1.65 0 3.3 0 5 0 C5.33 1.65 5.66 3.3 6 5 C4.35 5 2.7 5 1 5 C0.67 3.35 0.34 1.7 0 0 Z " fill="#D47D81" transform="translate(135,56)"/>
<path d="M0 0 C0.99 0 1.98 0 3 0 C3 2.64 3 5.28 3 8 C2.01 8 1.02 8 0 8 C0 5.36 0 2.72 0 0 Z " fill="#B11017" transform="translate(202,58)"/>
<path d="M0 0 C1.125 3.75 1.125 3.75 0 6 C-0.99 6 -1.98 6 -3 6 C-3.33 6.99 -3.66 7.98 -4 9 C-4 6.36 -4 3.72 -4 1 C-2.68 0.67 -1.36 0.34 0 0 Z " fill="#C13E45" transform="translate(60,57)"/>
<path d="M0 0 C0.66 0.33 1.32 0.66 2 1 C1.360625 1.886875 0.72125 2.77375 0.0625 3.6875 C-1.80829757 6.69211428 -2.59423966 8.5510371 -3 12 C-4.29539465 9.86640881 -5.03274515 8.52392246 -4.875 6 C-3.73959163 3.40478086 -2.08514322 1.88335517 0 0 Z " fill="#B51E25" transform="translate(80,34)"/>
<path d="M0 0 C0.33 0 0.66 0 1 0 C1 2.97 1 5.94 1 9 C-0.32 8.01 -1.64 7.02 -3 6 C-1.125 1.125 -1.125 1.125 0 0 Z " fill="#B3151C" transform="translate(29,57)"/>
<path d="M0 0 C1.98 0 3.96 0 6 0 C6 0.66 6 1.32 6 2 C5.34 2 4.68 2 4 2 C4 4.97 4 7.94 4 11 C3.67 11 3.34 11 3 11 C3 8.03 3 5.06 3 2 C2.01 2 1.02 2 0 2 C0 1.34 0 0.68 0 0 Z " fill="#EFD0D2" transform="translate(177,56)"/>
<path d="M0 0 C1.32 0.33 2.64 0.66 4 1 C4 1.66 4 2.32 4 3 C4.66 3.33 5.32 3.66 6 4 C5.34 4 4.68 4 4 4 C4 4.66 4 5.32 4 6 C3.01 5.67 2.02 5.34 1 5 C0.67 3.35 0.34 1.7 0 0 Z " fill="#D68588" transform="translate(32,39)"/>
<path d="M0 0 C0.33 0.66 0.66 1.32 1 2 C1.66 2 2.32 2 3 2 C3 4.97 3 7.94 3 11 C0.60236815 8.60236815 0.65719414 7.66726502 0.375 4.375 C0.30023438 3.55773438 0.22546875 2.74046875 0.1484375 1.8984375 C0.09945312 1.27195313 0.05046875 0.64546875 0 0 Z " fill="#B3161C" transform="translate(176,56)"/>
<path d="M0 0 C-4.455 2.97 -4.455 2.97 -9 6 C-9.66 5.34 -10.32 4.68 -11 4 C-9.73760288 3.13341385 -8.46472499 2.28207941 -7.1875 1.4375 C-6.47980469 0.96183594 -5.77210938 0.48617188 -5.04296875 -0.00390625 C-3 -1 -3 -1 0 0 Z " fill="#EDC8CA" transform="translate(200,29)"/>
<path d="M0 0 C1.32 0 2.64 0 4 0 C3.67 1.65 3.34 3.3 3 5 C2.01 5 1.02 5 0 5 C0 3.35 0 1.7 0 0 Z " fill="#B71E26" transform="translate(48,63)"/>
<path d="M0 0 C0.33 0 0.66 0 1 0 C0.67 2.97 0.34 5.94 0 9 C-0.99 9.33 -1.98 9.66 -3 10 C-3 9.01 -3 8.02 -3 7 C-2.34 7 -1.68 7 -1 7 C-1.020625 6.030625 -1.04125 5.06125 -1.0625 4.0625 C-1 1 -1 1 0 0 Z " fill="#ECC6C8" transform="translate(94,57)"/>
<path d="M0 0 C0.66 0 1.32 0 2 0 C2.66 2.64 3.32 5.28 4 8 C3.01 8.33 2.02 8.66 1 9 C0.67 6.03 0.34 3.06 0 0 Z " fill="#E2A5A9" transform="translate(89,56)"/>
<path d="M0 0 C1.65 0 3.3 0 5 0 C5 0.66 5 1.32 5 2 C4.34 2 3.68 2 3 2 C3 4.97 3 7.94 3 11 C2.67 11 2.34 11 2 11 C2 8.03 2 5.06 2 2 C1.34 2 0.68 2 0 2 C0 1.34 0 0.68 0 0 Z " fill="#F2D9DA" transform="translate(33,56)"/>
<path d="M0 0 C0.66 0 1.32 0 2 0 C3.125 5.75 3.125 5.75 2 8 C1.01 8 0.02 8 -1 8 C-0.67 5.36 -0.34 2.72 0 0 Z " fill="#D17579" transform="translate(174,56)"/>
<path d="M0 0 C0.99 0.33 1.98 0.66 3 1 C1.63016497 4.16115776 1.0109362 4.9927092 -2 7 C-2 3 -2 3 0 0 Z " fill="#B71E27" transform="translate(193,33)"/>
<path d="M0 0 C0.33 0.66 0.66 1.32 1 2 C0.06421005 4.35981813 -0.93347808 6.69631264 -2 9 C-2.33 8.01 -2.66 7.02 -3 6 C-3.66 5.67 -4.32 5.34 -5 5 C-3.35 3.35 -1.7 1.7 0 0 Z " fill="#B41921" transform="translate(142,33)"/>
<path d="M0 0 C0.33 0.99 0.66 1.98 1 3 C-0.32 4.32 -1.64 5.64 -3 7 C-3.66 6.34 -4.32 5.68 -5 5 C-3.35 3.35 -1.7 1.7 0 0 Z " fill="#B4181F" transform="translate(91,3)"/>
<path d="M0 0 C2.475 0.495 2.475 0.495 5 1 C5 3.97 5 6.94 5 10 C4.67 10 4.34 10 4 10 C3.896875 8.906875 3.79375 7.81375 3.6875 6.6875 C3.02692273 3.14440371 2.7972908 2.06756277 0 0 Z " fill="#F2D8D9" transform="translate(202,56)"/>
<path d="M0 0 C0.66 0 1.32 0 2 0 C2.33 0.99 2.66 1.98 3 3 C0 5 0 5 -3 5 C-1.125 1.125 -1.125 1.125 0 0 Z " fill="#BB2D35" transform="translate(39,34)"/>
<path d="M0 0 C0.66 1.32 1.32 2.64 2 4 C0.02 4.99 -1.96 5.98 -4 7 C-2.79618552 4.50638429 -1.54571278 2.31856917 0 0 Z " fill="#BC353B" transform="translate(219,31)"/>
<path d="M0 0 C0.33 0.99 0.66 1.98 1 3 C-0.32 3.99 -1.64 4.98 -3 6 C-3.66 5.34 -4.32 4.68 -5 4 C-3.35 2.68 -1.7 1.36 0 0 Z " fill="#B51C23" transform="translate(116,28)"/>
</svg>
